<svg width="32" height="32" viewBox="0 0 32 32" fill="none" xmlns="http://www.w3.org/2000/svg">
<path d="M31.8261 4.96094C31.6721 10.3584 31.7373 14.7845 31.8311 17.9069C32.0314 24.5779 32.5126 30.3081 29.8948 31.436C29.4224 31.6395 28.6525 31.7112 27.1128 31.8545C25.3434 32.0192 23.4331 32.0032 22.7204 31.996C22.6612 31.9953 22.6192 31.9948 22.5869 31.9944C15.8181 31.9043 9.04484 32.0412 2.27947 31.8223C2.01998 31.8139 1.31974 31.7922 0.771042 31.3478C-0.0348666 30.695 0.000225205 29.5378 0.000225205 28.8038V22.8779C0.0480844 22.6553 0.204925 22.0804 0.750349 21.587C1.43 20.9721 2.24341 20.9084 2.45965 20.8979C4.07941 20.8192 4.86885 20.5808 6.0996 20.7948C7.68379 21.0702 12.2801 20.0831 24.1344 15.5662" fill="url(#paint0_linear_12_3601)"/>
<path d="M19.479 8.45906V1.92298C19.479 1.92298 19.6758 0.265945 21.7417 0.0818292C23.8076 -0.102286 29.6119 0.0818292 29.6119 0.0818292C29.9148 0.0599284 30.3561 0.072965 30.7678 0.294629C32.5566 1.25777 31.8863 5.13697 31.677 6.34792C31.5132 7.29594 31.1768 8.66795 30.4109 10.2542C29.7881 11.3978 28.731 13.0592 27.0172 14.719C21.9626 19.614 14.863 20.5113 12.937 20.7487C11.2988 20.9507 8.78209 21.1189 5.67969 20.7371C5.94697 20.6774 6.51264 20.5152 7.03754 20.0545C7.63406 19.5309 7.83205 18.9254 7.89766 18.6774V13.3381C7.89766 13.3381 7.77218 10.9446 10.33 10.8526C12.8878 10.7605 17.4131 10.8526 17.4131 10.8526C17.4131 10.8526 19.479 10.5764 19.479 8.45906Z" fill="url(#paint1_linear_12_3601)"/>
<defs>
<linearGradient id="paint0_linear_12_3601" x1="5.22831" y1="35.2692" x2="27.2168" y2="13.6485" gradientUnits="userSpaceOnUse">
<stop offset="0.17089" stop-color="#206942"/>
<stop offset="1" stop-color="#249259"/>
</linearGradient>
<linearGradient id="paint1_linear_12_3601" x1="7.90295" y1="19.2926" x2="27.5541" y2="2.86458" gradientUnits="userSpaceOnUse">
<stop offset="0.01529" stop-color="#CBC64E"/>
<stop offset="1" stop-color="#FFD24E"/>
</linearGradient>
</defs>
</svg>
