<svg width="24" height="24" viewBox="0 0 24 24" fill="none" xmlns="http://www.w3.org/2000/svg">
<path d="M10.2189 4.16228C10.8894 2.5954 13.1106 2.5954 13.7811 4.16228C14.1951 5.1298 15.3058 5.58986 16.2827 5.19847C17.8647 4.56463 19.4354 6.13526 18.8015 7.71732C18.4101 8.69421 18.8702 9.80489 19.8377 10.2189C21.4046 10.8894 21.4046 13.1106 19.8377 13.7811C18.8702 14.1951 18.4101 15.3058 18.8015 16.2827C19.4354 17.8647 17.8647 19.4354 16.2827 18.8015C15.3058 18.4101 14.1951 18.8702 13.7811 19.8377C13.1106 21.4046 10.8894 21.4046 10.2189 19.8377C9.80489 18.8702 8.69421 18.4101 7.71732 18.8015C6.13526 19.4354 4.56463 17.8647 5.19847 16.2827C5.58986 15.3058 5.1298 14.1951 4.16228 13.7811C2.5954 13.1106 2.5954 10.8894 4.16228 10.2189C5.1298 9.80489 5.58986 8.69421 5.19847 7.71732C4.56463 6.13526 6.13526 4.56463 7.71732 5.19847C8.69421 5.58986 9.80489 5.1298 10.2189 4.16228Z" fill="url(#paint0_linear_108_671)"/>
<circle cx="12" cy="12" r="6" fill="url(#paint1_linear_108_671)"/>
<path d="M11.7231 8.66331C11.8258 8.41738 12.1742 8.41738 12.2769 8.66331L12.99 10.3719C13.0332 10.4755 13.1306 10.5463 13.2425 10.5554L15.0878 10.7056C15.3534 10.7272 15.4611 11.0586 15.2589 11.2322L13.8543 12.4384C13.7692 12.5115 13.732 12.6261 13.7579 12.7353L14.1852 14.5367C14.2467 14.796 13.9649 15.0008 13.7373 14.8622L12.1561 13.8991C12.0602 13.8407 11.9398 13.8407 11.8439 13.8991L10.2627 14.8622C10.0351 15.0008 9.75325 14.796 9.81477 14.5367L10.2421 12.7353C10.268 12.6261 10.2308 12.5115 10.1457 12.4384L8.74107 11.2322C8.5389 11.0586 8.64656 10.7272 8.91217 10.7056L10.7575 10.5554C10.8694 10.5463 10.9668 10.4755 11.01 10.3719L11.7231 8.66331Z" fill="#EDF7FF"/>
<defs>
<linearGradient id="paint0_linear_108_671" x1="0" y1="12" x2="24" y2="12" gradientUnits="userSpaceOnUse">
<stop stop-color="#FF0068"/>
<stop offset="1" stop-color="#740029"/>
</linearGradient>
<linearGradient id="paint1_linear_108_671" x1="9.42857" y1="6" x2="12" y2="18.8571" gradientUnits="userSpaceOnUse">
<stop stop-color="#3C0001"/>
<stop offset="1" stop-color="#FF0000"/>
</linearGradient>
</defs>
</svg>
